<svg xmlns="http://www.w3.org/2000/svg" viewBox="0 0 1680 1200" width="1680" height="1200">
<defs></defs>
<rect x="6.0" y="6.0" width="1668.0" height="1188.0" rx="18" fill="white" stroke="black" stroke-width="8"/>
<path d="M 30,180.0 Q 840.0,300.0 1650.0,180.0" fill="none" stroke="black" stroke-width="4"/>
<polygon points="190.0,203.7 230.0,203.7 210.0,243.7" fill="#E8A0A8" stroke="black" stroke-width="3"/>
<polygon points="370.0,221.5 410.0,221.5 390.0,261.5" fill="#F0D080" stroke="black" stroke-width="3"/>
<polygon points="550.0,233.3 590.0,233.3 570.0,273.3" fill="#8FBFDB" stroke="black" stroke-width="3"/>
<polygon points="730.0,239.3 770.0,239.3 750.0,279.3" fill="#E8A0A8" stroke="black" stroke-width="3"/>
<polygon points="910.0,239.3 950.0,239.3 930.0,279.3" fill="#F0D080" stroke="black" stroke-width="3"/>
<polygon points="1090.0,233.3 1130.0,233.3 1110.0,273.3" fill="#8FBFDB" stroke="black" stroke-width="3"/>
<polygon points="1270.0,221.5 1310.0,221.5 1290.0,261.5" fill="#E8A0A8" stroke="black" stroke-width="3"/>
<polygon points="1450.0,203.7 1490.0,203.7 1470.0,243.7" fill="#F0D080" stroke="black" stroke-width="3"/>
<path d="M 30,344.0 Q 840.0,424.0 1650.0,344.0" fill="none" stroke="black" stroke-width="4"/>
<polygon points="190.0,359.8 230.0,359.8 210.0,399.8" fill="#8FBFDB" stroke="black" stroke-width="3"/>
<polygon points="370.0,371.7 410.0,371.7 390.0,411.7" fill="#E8A0A8" stroke="black" stroke-width="3"/>
<polygon points="550.0,379.6 590.0,379.6 570.0,419.6" fill="#F0D080" stroke="black" stroke-width="3"/>
<polygon points="730.0,383.5 770.0,383.5 750.0,423.5" fill="#8FBFDB" stroke="black" stroke-width="3"/>
<polygon points="910.0,383.5 950.0,383.5 930.0,423.5" fill="#E8A0A8" stroke="black" stroke-width="3"/>
<polygon points="1090.0,379.6 1130.0,379.6 1110.0,419.6" fill="#F0D080" stroke="black" stroke-width="3"/>
<polygon points="1270.0,371.7 1310.0,371.7 1290.0,411.7" fill="#8FBFDB" stroke="black" stroke-width="3"/>
<polygon points="1450.0,359.8 1490.0,359.8 1470.0,399.8" fill="#E8A0A8" stroke="black" stroke-width="3"/>
<path d="M 30,502.0 Q 840.0,554.0 1650.0,502.0" fill="none" stroke="black" stroke-width="4"/>
<polygon points="190.0,512.3 230.0,512.3 210.0,552.3" fill="#F0D080" stroke="black" stroke-width="3"/>
<polygon points="370.0,520.0 410.0,520.0 390.0,560.0" fill="#8FBFDB" stroke="black" stroke-width="3"/>
<polygon points="550.0,525.1 590.0,525.1 570.0,565.1" fill="#E8A0A8" stroke="black" stroke-width="3"/>
<polygon points="730.0,527.7 770.0,527.7 750.0,567.7" fill="#F0D080" stroke="black" stroke-width="3"/>
<polygon points="910.0,527.7 950.0,527.7 930.0,567.7" fill="#8FBFDB" stroke="black" stroke-width="3"/>
<polygon points="1090.0,525.1 1130.0,525.1 1110.0,565.1" fill="#E8A0A8" stroke="black" stroke-width="3"/>
<polygon points="1270.0,520.0 1310.0,520.0 1290.0,560.0" fill="#F0D080" stroke="black" stroke-width="3"/>
<polygon points="1450.0,512.3 1490.0,512.3 1470.0,552.3" fill="#8FBFDB" stroke="black" stroke-width="3"/>
<rect x="825.0" y="744.0" width="30.0" height="408.0" rx="0" fill="#9A9A9A" stroke="black" stroke-width="5"/>
<rect x="710.0" y="432.0" width="260.0" height="190.0" rx="0" fill="#C0603C" stroke="black" stroke-width="6"/>
<rect x="775.0" y="492.8" width="130.0" height="46.0" rx="0" fill="#E8C888" stroke="black" stroke-width="5"/>
<polygon points="740.0,438.0 762.0,438.0 751.0,466.0" fill="black"/>
<polygon points="786.0,438.0 808.0,438.0 797.0,466.0" fill="black"/>
<polygon points="832.0,438.0 854.0,438.0 843.0,466.0" fill="black"/>
<polygon points="878.0,438.0 900.0,438.0 889.0,466.0" fill="black"/>
<polygon points="924.0,438.0 946.0,438.0 935.0,466.0" fill="black"/>
<polygon points="90.0,48.0 95.4,64.6 112.0,70.0 95.4,75.4 90.0,92.0 84.6,75.4 68.0,70.0 84.6,64.6" fill="white" stroke="black" stroke-width="3"/>
<polygon points="1590.0,54.0 1594.0,66.0 1606.0,70.0 1594.0,74.0 1590.0,86.0 1586.0,74.0 1574.0,70.0 1586.0,66.0" fill="white" stroke="black" stroke-width="3"/>
</svg>
