<svg xmlns="http://www.w3.org/2000/svg" viewBox="0 0 1680 1200" width="1680" height="1200">
<defs><pattern id="stars4" width="46" height="46" patternUnits="userSpaceOnUse"><circle cx="23.0" cy="23.0" r="3" fill="#7A81B8"/></pattern></defs>
<rect x="6.0" y="6.0" width="1668.0" height="1188.0" rx="18" fill="#2B2E4A" stroke="black" stroke-width="8"/>
<rect x="20.0" y="20.0" width="1640.0" height="1160.0" rx="0" fill="url(#stars4)" stroke="black" stroke-width="6"/>
<ellipse cx="140.00" cy="192.00" rx="34.00" ry="44.00" fill="#F0D060" stroke="black" stroke-width="5"/>
<ellipse cx="420.00" cy="192.00" rx="34.00" ry="44.00" fill="#F0D060" stroke="black" stroke-width="5"/>
<ellipse cx="700.00" cy="192.00" rx="34.00" ry="44.00" fill="#F0D060" stroke="black" stroke-width="5"/>
<ellipse cx="980.00" cy="192.00" rx="34.00" ry="44.00" fill="#F0D060" stroke="black" stroke-width="5"/>
<ellipse cx="1260.00" cy="192.00" rx="34.00" ry="44.00" fill="#F0D060" stroke="black" stroke-width="5"/>
<ellipse cx="1540.00" cy="192.00" rx="34.00" ry="44.00" fill="#6A6E96" stroke="black" stroke-width="5"/>
<rect x="816.0" y="1032.0" width="48.0" height="26.0" rx="0" fill="#8A8DA8" stroke="black" stroke-width="4"/>
<path d="M 840.0,1036.0 C 750.0,992.0 770.0,660.0 840.0,720.0 C 910.0,660.0 930.0,992.0 840.0,1036.0 Z" fill="#F0C848" stroke="black" stroke-width="5"/>
<circle cx="840.00" cy="650.00" r="24.00" fill="black"/>
<circle cx="840.00" cy="690.00" r="30.00" fill="black"/>
<circle cx="840.00" cy="740.00" r="40.00" fill="black"/>
<line x1="830.0" y1="630.0" x2="806.0" y2="580.0" stroke="white" stroke-width="5" stroke-linecap="round"/>
<line x1="850.0" y1="630.0" x2="874.0" y2="580.0" stroke="white" stroke-width="5" stroke-linecap="round"/>
<polygon points="806.0,562.0 808.5,569.5 816.0,572.0 808.5,574.5 806.0,582.0 803.5,574.5 796.0,572.0 803.5,569.5" fill="white" stroke="black" stroke-width="2"/>
<polygon points="874.0,562.0 876.5,569.5 884.0,572.0 876.5,574.5 874.0,582.0 871.5,574.5 864.0,572.0 871.5,569.5" fill="white" stroke="black" stroke-width="2"/>
<polygon points="717.8,644.9 723.8,662.9 741.8,668.9 723.8,674.8 717.8,692.9 711.9,674.8 693.8,668.9 711.9,662.9" fill="white" stroke="black" stroke-width="2"/>
<polygon points="785.3,570.8 791.2,588.8 809.3,594.8 791.2,600.7 785.3,618.8 779.3,600.7 761.3,594.8 779.3,588.8" fill="white" stroke="black" stroke-width="2"/>
<polygon points="895.0,599.3 903.4,624.9 929.0,633.3 903.4,641.7 895.0,667.3 886.6,641.7 861.0,633.3 886.6,624.9" fill="white" stroke="black" stroke-width="2"/>
<polygon points="969.9,738.5 973.4,749.0 983.9,752.5 973.4,756.0 969.9,766.5 966.4,756.0 955.9,752.5 966.4,749.0" fill="white" stroke="black" stroke-width="2"/>
<polygon points="881.0,764.9 884.5,775.5 895.0,778.9 884.5,782.4 881.0,792.9 877.6,782.4 867.0,778.9 877.6,775.5" fill="white" stroke="black" stroke-width="2"/>
<polygon points="934.0,652.1 939.9,670.1 958.0,676.1 939.9,682.0 934.0,700.1 928.0,682.0 910.0,676.1 928.0,670.1" fill="white" stroke="black" stroke-width="2"/>
</svg>
