<svg xmlns="http://www.w3.org/2000/svg" viewBox="0 0 1680 1200" width="1680" height="1200">
<rect x="6.0" y="6.0" width="1668.0" height="1188.0" rx="18" fill="white" stroke="black" stroke-width="8"/>
<rect x="168.0" y="120.0" width="1344.0" height="816.0" rx="0" fill="none" stroke="black" stroke-width="5" stroke-dasharray="14,10"/>
<clipPath id="figClip"><path d="M 660.0,499.2 C 651.0,621.6 708.0,621.6 708.0,744.0 L 972.0,744.0 C 972.0,621.6 1029.0,621.6 1020.0,499.2 Z"/><path d="M 708.0,738.0 L 816.9,738.0 L 806.6,926.0 L 688.2,926.0 Z"/><path d="M 972.0,738.0 L 863.1,738.0 L 873.4,926.0 L 991.8,926.0 Z"/><circle cx="840.0" cy="336.0" r="102.0"/></clipPath>
<circle cx="840.00" cy="336.00" r="102.00" fill="white" stroke="black" stroke-width="7"/>
<path d="M 660.0,499.2 C 651.0,621.6 708.0,621.6 708.0,744.0 L 972.0,744.0 C 972.0,621.6 1029.0,621.6 1020.0,499.2 Z" fill="white" stroke="black" stroke-width="7"/>
<path d="M 708.0,738.0 L 816.9,738.0 L 806.6,926.0 L 688.2,926.0 Z" fill="white" stroke="black" stroke-width="7"/>
<path d="M 972.0,738.0 L 863.1,738.0 L 873.4,926.0 L 991.8,926.0 Z" fill="white" stroke="black" stroke-width="7"/>
<g clip-path="url(#figClip)">
<circle cx="606.00" cy="193.20" r="12.33" fill="#4A2E63" stroke="none" stroke-width="0"/>
<circle cx="1037.35" cy="213.85" r="5.57" fill="black" stroke="none" stroke-width="0"/>
<circle cx="632.78" cy="233.60" r="8.16" fill="black" stroke="none" stroke-width="0"/>
<circle cx="867.25" cy="252.41" r="9.58" fill="#4A2E63" stroke="none" stroke-width="0"/>
<circle cx="780.91" cy="270.55" r="8.51" fill="black" stroke="none" stroke-width="0"/>
<circle cx="818.23" cy="294.42" r="5.05" fill="black" stroke="none" stroke-width="0"/>
<circle cx="899.01" cy="319.60" r="12.71" fill="#4A2E63" stroke="none" stroke-width="0"/>
<circle cx="683.49" cy="339.52" r="12.54" fill="black" stroke="none" stroke-width="0"/>
<circle cx="760.02" cy="356.12" r="7.47" fill="black" stroke="none" stroke-width="0"/>
<circle cx="858.54" cy="379.46" r="9.40" fill="#4A2E63" stroke="none" stroke-width="0"/>
<circle cx="1060.67" cy="402.90" r="10.33" fill="black" stroke="none" stroke-width="0"/>
<circle cx="990.32" cy="419.65" r="13.61" fill="black" stroke="none" stroke-width="0"/>
<circle cx="689.79" cy="441.92" r="12.42" fill="#4A2E63" stroke="none" stroke-width="0"/>
<circle cx="1071.74" cy="463.37" r="11.18" fill="black" stroke="none" stroke-width="0"/>
<circle cx="987.90" cy="485.24" r="10.65" fill="black" stroke="none" stroke-width="0"/>
<circle cx="812.77" cy="509.27" r="6.28" fill="#4A2E63" stroke="none" stroke-width="0"/>
<circle cx="1039.78" cy="530.77" r="6.59" fill="black" stroke="none" stroke-width="0"/>
<circle cx="809.20" cy="552.43" r="5.75" fill="black" stroke="none" stroke-width="0"/>
<circle cx="907.48" cy="568.59" r="9.24" fill="#4A2E63" stroke="none" stroke-width="0"/>
<circle cx="757.00" cy="588.94" r="9.58" fill="black" stroke="none" stroke-width="0"/>
<circle cx="961.86" cy="612.73" r="5.95" fill="black" stroke="none" stroke-width="0"/>
<circle cx="866.22" cy="628.74" r="13.10" fill="#4A2E63" stroke="none" stroke-width="0"/>
<circle cx="915.29" cy="646.24" r="5.20" fill="black" stroke="none" stroke-width="0"/>
<circle cx="802.25" cy="669.65" r="11.50" fill="black" stroke="none" stroke-width="0"/>
<circle cx="669.54" cy="693.42" r="8.90" fill="#4A2E63" stroke="none" stroke-width="0"/>
<circle cx="760.66" cy="718.03" r="11.65" fill="black" stroke="none" stroke-width="0"/>
<circle cx="837.81" cy="737.77" r="10.77" fill="black" stroke="none" stroke-width="0"/>
<circle cx="606.15" cy="757.46" r="11.88" fill="#4A2E63" stroke="none" stroke-width="0"/>
<circle cx="681.77" cy="775.03" r="13.78" fill="black" stroke="none" stroke-width="0"/>
<circle cx="802.65" cy="797.60" r="6.74" fill="black" stroke="none" stroke-width="0"/>
<circle cx="1067.02" cy="822.05" r="11.68" fill="#4A2E63" stroke="none" stroke-width="0"/>
<circle cx="944.56" cy="845.68" r="13.11" fill="black" stroke="none" stroke-width="0"/>
<circle cx="739.71" cy="864.71" r="11.50" fill="black" stroke="none" stroke-width="0"/>
<circle cx="801.64" cy="882.98" r="5.87" fill="#4A2E63" stroke="none" stroke-width="0"/>
<circle cx="699.88" cy="907.05" r="10.43" fill="black" stroke="none" stroke-width="0"/>
<circle cx="875.53" cy="923.76" r="11.42" fill="black" stroke="none" stroke-width="0"/>
<circle cx="1065.35" cy="940.77" r="6.71" fill="#4A2E63" stroke="none" stroke-width="0"/>
</g>
<path d="M 660.0,499.2 C 651.0,621.6 708.0,621.6 708.0,744.0 L 972.0,744.0 C 972.0,621.6 1029.0,621.6 1020.0,499.2 Z M 708.0,738.0 L 816.9,738.0 L 806.6,926.0 L 688.2,926.0 Z M 972.0,738.0 L 863.1,738.0 L 873.4,926.0 L 991.8,926.0 Z" fill="none" stroke="black" stroke-width="7"/>
<circle cx="840.00" cy="336.00" r="102.00" fill="none" stroke="black" stroke-width="7"/>
<g transform="rotate(-8 770.0 966.0)">
<rect x="731.0" y="938.0" width="78.0" height="56.0" rx="0" fill="white" stroke="black" stroke-width="4"/>
<line x1="741.0" y1="952.0" x2="799.0" y2="952.0" stroke="black" stroke-width="2.5"/>
<line x1="741.0" y1="964.0" x2="799.0" y2="964.0" stroke="black" stroke-width="2.5"/>
<line x1="741.0" y1="976.0" x2="799.0" y2="976.0" stroke="black" stroke-width="2.5"/>
</g>
<g transform="rotate(14 840.0 958.0)">
<rect x="801.0" y="930.0" width="78.0" height="56.0" rx="0" fill="white" stroke="black" stroke-width="4"/>
<line x1="811.0" y1="944.0" x2="869.0" y2="944.0" stroke="black" stroke-width="2.5"/>
<line x1="811.0" y1="956.0" x2="869.0" y2="956.0" stroke="black" stroke-width="2.5"/>
<line x1="811.0" y1="968.0" x2="869.0" y2="968.0" stroke="black" stroke-width="2.5"/>
</g>
<g transform="rotate(-18 908.0 972.0)">
<rect x="869.0" y="944.0" width="78.0" height="56.0" rx="0" fill="white" stroke="black" stroke-width="4"/>
<line x1="879.0" y1="958.0" x2="937.0" y2="958.0" stroke="black" stroke-width="2.5"/>
<line x1="879.0" y1="970.0" x2="937.0" y2="970.0" stroke="black" stroke-width="2.5"/>
<line x1="879.0" y1="982.0" x2="937.0" y2="982.0" stroke="black" stroke-width="2.5"/>
</g>
</svg>
