<svg xmlns="http://www.w3.org/2000/svg" viewBox="0 0 1680 1200" width="1680" height="1200">
<defs><pattern id="jardot" width="16" height="16" patternUnits="userSpaceOnUse"><circle cx="8.0" cy="8.0" r="1.6" fill="#3A6E6E"/></pattern><clipPath id="clip1"><rect x="480.0" y="230.0" width="320" height="620"/></clipPath><clipPath id="clip2"><rect x="880.0" y="230.0" width="320" height="620"/></clipPath></defs>
<rect x="6.0" y="6.0" width="1668.0" height="1188.0" rx="18" fill="white" stroke="black" stroke-width="8"/>
<rect x="470.0" y="196.0" width="340.0" height="40.0" rx="0" fill="#1F3B3B" stroke="black" stroke-width="5"/>
<rect x="480.0" y="230.0" width="320.0" height="620.0" rx="0" fill="#173030" stroke="black" stroke-width="6"/>
<g clip-path="url(#clip1)">
<rect x="480.0" y="230.0" width="320.0" height="620.0" rx="0" fill="url(#jardot)" stroke="black" stroke-width="6"/>
</g>
<rect x="480.0" y="230.0" width="320.0" height="620.0" rx="0" fill="none" stroke="black" stroke-width="6"/>
<polygon points="640.0,46.0 450.0,246.0 830.0,246.0" fill="#F0E4B8"/>
<path d="M 614.4,736.0 C 544.4,636.0 694.4,436.0 604.4,306.0" fill="none" stroke="#E8E8EC" stroke-width="10"/>
<circle cx="614.40" cy="776.00" r="46.00" fill="white" stroke="black" stroke-width="5"/>
<rect x="870.0" y="196.0" width="340.0" height="40.0" rx="0" fill="#1F3B3B" stroke="black" stroke-width="5"/>
<rect x="880.0" y="230.0" width="320.0" height="620.0" rx="0" fill="#173030" stroke="black" stroke-width="6"/>
<g clip-path="url(#clip2)">
<rect x="880.0" y="230.0" width="320.0" height="620.0" rx="0" fill="url(#jardot)" stroke="black" stroke-width="6"/>
</g>
<rect x="880.0" y="230.0" width="320.0" height="620.0" rx="0" fill="none" stroke="black" stroke-width="6"/>
<line x1="933.3" y1="276.0" x2="933.3" y2="816.0" stroke="#E8D090" stroke-width="10" stroke-linecap="round"/>
<circle cx="933.33" cy="256.00" r="9.00" fill="white" stroke="black" stroke-width="3"/>
<line x1="986.7" y1="276.0" x2="986.7" y2="816.0" stroke="#E8D090" stroke-width="10" stroke-linecap="round"/>
<circle cx="986.67" cy="256.00" r="9.00" fill="white" stroke="black" stroke-width="3"/>
<line x1="1040.0" y1="276.0" x2="1040.0" y2="816.0" stroke="#E8D090" stroke-width="10" stroke-linecap="round"/>
<circle cx="1040.00" cy="256.00" r="9.00" fill="white" stroke="black" stroke-width="3"/>
<line x1="1093.3" y1="276.0" x2="1093.3" y2="816.0" stroke="#E8D090" stroke-width="10" stroke-linecap="round"/>
<circle cx="1093.33" cy="256.00" r="9.00" fill="white" stroke="black" stroke-width="3"/>
<line x1="1146.7" y1="276.0" x2="1146.7" y2="816.0" stroke="#E8D090" stroke-width="10" stroke-linecap="round"/>
<circle cx="1146.67" cy="256.00" r="9.00" fill="white" stroke="black" stroke-width="3"/>
</svg>
