<svg xmlns="http://www.w3.org/2000/svg" viewBox="0 0 1680 1200" width="1680" height="1200">
<defs><pattern id="fur3" width="14" height="14" patternUnits="userSpaceOnUse"><circle cx="7.0" cy="7.0" r="1.8" fill="black"/></pattern><clipPath id="clip1"><rect x="44.0" y="690.0" width="92" height="40"/></clipPath><clipPath id="clip2"><rect x="344.0" y="690.0" width="92" height="40"/></clipPath><clipPath id="clip3"><rect x="644.0" y="690.0" width="92" height="40"/></clipPath><clipPath id="clip4"><rect x="944.0" y="690.0" width="92" height="40"/></clipPath><clipPath id="clip5"><rect x="1244.0" y="690.0" width="92" height="40"/></clipPath><clipPath id="clip6"><rect x="1544.0" y="690.0" width="92" height="40"/></clipPath></defs>
<rect x="6.0" y="6.0" width="1668.0" height="1188.0" rx="18" fill="white" stroke="black" stroke-width="8"/>
<circle cx="90.00" cy="660.00" r="46.00" fill="#D89A5A" stroke="black" stroke-width="5"/>
<circle cx="75.00" cy="656.00" r="6.00" fill="black"/>
<circle cx="105.00" cy="656.00" r="6.00" fill="black"/>
<line x1="50.0" y1="680.0" x2="28.0" y2="704.0" stroke="black" stroke-width="6" stroke-linecap="round"/>
<line x1="130.0" y1="680.0" x2="152.0" y2="704.0" stroke="black" stroke-width="6" stroke-linecap="round"/>
<g clip-path="url(#clip1)">
<rect x="44.0" y="690.0" width="92.0" height="40.0" rx="0" fill="url(#fur3)" stroke="black" stroke-width="6"/>
</g>
<circle cx="390.00" cy="660.00" r="46.00" fill="#7FAE7A" stroke="black" stroke-width="5"/>
<circle cx="375.00" cy="656.00" r="6.00" fill="black"/>
<circle cx="405.00" cy="656.00" r="6.00" fill="black"/>
<line x1="350.0" y1="680.0" x2="328.0" y2="704.0" stroke="black" stroke-width="6" stroke-linecap="round"/>
<line x1="430.0" y1="680.0" x2="452.0" y2="704.0" stroke="black" stroke-width="6" stroke-linecap="round"/>
<g clip-path="url(#clip2)">
<rect x="344.0" y="690.0" width="92.0" height="40.0" rx="0" fill="url(#fur3)" stroke="black" stroke-width="6"/>
</g>
<circle cx="690.00" cy="660.00" r="46.00" fill="#9B7FB8" stroke="black" stroke-width="5"/>
<circle cx="675.00" cy="656.00" r="6.00" fill="black"/>
<circle cx="705.00" cy="656.00" r="6.00" fill="black"/>
<line x1="650.0" y1="680.0" x2="628.0" y2="704.0" stroke="black" stroke-width="6" stroke-linecap="round"/>
<line x1="730.0" y1="680.0" x2="752.0" y2="704.0" stroke="black" stroke-width="6" stroke-linecap="round"/>
<g clip-path="url(#clip3)">
<rect x="644.0" y="690.0" width="92.0" height="40.0" rx="0" fill="url(#fur3)" stroke="black" stroke-width="6"/>
</g>
<circle cx="990.00" cy="660.00" r="46.00" fill="#E0C25A" stroke="black" stroke-width="5"/>
<circle cx="975.00" cy="656.00" r="6.00" fill="black"/>
<circle cx="1005.00" cy="656.00" r="6.00" fill="black"/>
<line x1="950.0" y1="680.0" x2="928.0" y2="704.0" stroke="black" stroke-width="6" stroke-linecap="round"/>
<line x1="1030.0" y1="680.0" x2="1052.0" y2="704.0" stroke="black" stroke-width="6" stroke-linecap="round"/>
<g clip-path="url(#clip4)">
<rect x="944.0" y="690.0" width="92.0" height="40.0" rx="0" fill="url(#fur3)" stroke="black" stroke-width="6"/>
</g>
<circle cx="1290.00" cy="660.00" r="46.00" fill="#7FB8D0" stroke="black" stroke-width="5"/>
<circle cx="1275.00" cy="656.00" r="6.00" fill="black"/>
<circle cx="1305.00" cy="656.00" r="6.00" fill="black"/>
<line x1="1250.0" y1="680.0" x2="1228.0" y2="704.0" stroke="black" stroke-width="6" stroke-linecap="round"/>
<line x1="1330.0" y1="680.0" x2="1352.0" y2="704.0" stroke="black" stroke-width="6" stroke-linecap="round"/>
<g clip-path="url(#clip5)">
<rect x="1244.0" y="690.0" width="92.0" height="40.0" rx="0" fill="url(#fur3)" stroke="black" stroke-width="6"/>
</g>
<circle cx="1590.00" cy="660.00" r="46.00" fill="#D98CA0" stroke="black" stroke-width="5"/>
<circle cx="1575.00" cy="656.00" r="6.00" fill="black"/>
<circle cx="1605.00" cy="656.00" r="6.00" fill="black"/>
<line x1="1550.0" y1="680.0" x2="1528.0" y2="704.0" stroke="black" stroke-width="6" stroke-linecap="round"/>
<line x1="1630.0" y1="680.0" x2="1652.0" y2="704.0" stroke="black" stroke-width="6" stroke-linecap="round"/>
<g clip-path="url(#clip6)">
<rect x="1544.0" y="690.0" width="92.0" height="40.0" rx="0" fill="url(#fur3)" stroke="black" stroke-width="6"/>
</g>
<line x1="20.0" y1="984.0" x2="1660.0" y2="984.0" stroke="black" stroke-width="5" stroke-linecap="round"/>
<polygon points="806.0,816.0 874.0,816.0 864.0,876.0 816.0,876.0" fill="#E8C888" stroke="black" stroke-width="6"/>
<line x1="90.0" y1="720.0" x2="727.5" y2="836.0" stroke="black" stroke-width="4" stroke-linecap="round"/>
<line x1="390.0" y1="720.0" x2="772.5" y2="836.0" stroke="black" stroke-width="4" stroke-linecap="round"/>
<line x1="690.0" y1="720.0" x2="817.5" y2="836.0" stroke="black" stroke-width="4" stroke-linecap="round"/>
<line x1="990.0" y1="720.0" x2="862.5" y2="836.0" stroke="black" stroke-width="4" stroke-linecap="round"/>
<line x1="1290.0" y1="720.0" x2="907.5" y2="836.0" stroke="black" stroke-width="4" stroke-linecap="round"/>
<line x1="1590.0" y1="720.0" x2="952.5" y2="836.0" stroke="black" stroke-width="4" stroke-linecap="round"/>
<polygon points="810.0,886.0 840.0,856.0 870.0,886.0" fill="none" stroke="black" stroke-width="4"/>
</svg>
