<svg xmlns="http://www.w3.org/2000/svg" viewBox="0 0 1680 1200" width="1680" height="1200">
<defs><pattern id="chalk7" width="20" height="20" patternUnits="userSpaceOnUse"><circle cx="10.0" cy="10.0" r="1.6" fill="#3E6A52"/></pattern><clipPath id="clip1"><rect x="40" y="30" width="1600" height="744.0" rx="6"/></clipPath></defs>
<rect x="6.0" y="6.0" width="1668.0" height="1188.0" rx="18" fill="white" stroke="black" stroke-width="8"/>
<rect x="26.0" y="16.0" width="1628.0" height="772.0" rx="10" fill="#E8C848" stroke="black" stroke-width="6"/>
<rect x="40.0" y="30.0" width="1600.0" height="744.0" rx="6" fill="#1B3B2C" stroke="black" stroke-width="5"/>
<g clip-path="url(#clip1)">
<rect x="40.0" y="30.0" width="1600.0" height="744.0" rx="0" fill="url(#chalk7)" stroke="black" stroke-width="6"/>
</g>
<text x="840.0" y="90.0" font-family="sans-serif" font-weight="700" font-size="40" text-anchor="middle" fill="#E8C848">UNDEFEATED!</text>
<line x1="80.0" y1="342.5" x2="1600.0" y2="342.5" stroke="#E8E8D8" stroke-width="6" stroke-linecap="round"/>
<line x1="80.0" y1="446.6" x2="1600.0" y2="446.6" stroke="#E8E8D8" stroke-width="6" stroke-linecap="round"/>
<line x1="80.0" y1="550.8" x2="1600.0" y2="550.8" stroke="#E8E8D8" stroke-width="6" stroke-linecap="round"/>
<circle cx="840.00" cy="446.64" r="32.00" fill="black"/>
<polygon points="830.4,437.0 766.4,405.0 824.0,453.0" fill="white" stroke="black" stroke-width="2"/>
<polygon points="849.6,437.0 913.6,405.0 856.0,453.0" fill="white" stroke="black" stroke-width="2"/>
<line x1="817.6" y1="465.8" x2="798.4" y2="494.6" stroke="black" stroke-width="4.800000000000001" stroke-linecap="round"/>
<line x1="862.4" y1="465.8" x2="881.6" y2="494.6" stroke="black" stroke-width="4.800000000000001" stroke-linecap="round"/>
<line x1="20.0" y1="834.0" x2="1660.0" y2="834.0" stroke="black" stroke-width="5" stroke-linecap="round"/>
<circle cx="302.40" cy="894.00" r="20.00" fill="black"/>
<polygon points="296.4,888.0 256.4,868.0 292.4,898.0" fill="white" stroke="black" stroke-width="2"/>
<polygon points="308.4,888.0 348.4,868.0 312.4,898.0" fill="white" stroke="black" stroke-width="2"/>
<line x1="288.4" y1="906.0" x2="276.4" y2="924.0" stroke="black" stroke-width="3.0" stroke-linecap="round"/>
<line x1="316.4" y1="906.0" x2="328.4" y2="924.0" stroke="black" stroke-width="3.0" stroke-linecap="round"/>
<circle cx="660.80" cy="894.00" r="20.00" fill="black"/>
<polygon points="654.8,888.0 614.8,868.0 650.8,898.0" fill="white" stroke="black" stroke-width="2"/>
<polygon points="666.8,888.0 706.8,868.0 670.8,898.0" fill="white" stroke="black" stroke-width="2"/>
<line x1="646.8" y1="906.0" x2="634.8" y2="924.0" stroke="black" stroke-width="3.0" stroke-linecap="round"/>
<line x1="674.8" y1="906.0" x2="686.8" y2="924.0" stroke="black" stroke-width="3.0" stroke-linecap="round"/>
<circle cx="1019.20" cy="894.00" r="20.00" fill="black"/>
<polygon points="1013.2,888.0 973.2,868.0 1009.2,898.0" fill="white" stroke="black" stroke-width="2"/>
<polygon points="1025.2,888.0 1065.2,868.0 1029.2,898.0" fill="white" stroke="black" stroke-width="2"/>
<line x1="1005.2" y1="906.0" x2="993.2" y2="924.0" stroke="black" stroke-width="3.0" stroke-linecap="round"/>
<line x1="1033.2" y1="906.0" x2="1045.2" y2="924.0" stroke="black" stroke-width="3.0" stroke-linecap="round"/>
<circle cx="1377.60" cy="894.00" r="20.00" fill="black"/>
<polygon points="1371.6,888.0 1331.6,868.0 1367.6,898.0" fill="white" stroke="black" stroke-width="2"/>
<polygon points="1383.6,888.0 1423.6,868.0 1387.6,898.0" fill="white" stroke="black" stroke-width="2"/>
<line x1="1363.6" y1="906.0" x2="1351.6" y2="924.0" stroke="black" stroke-width="3.0" stroke-linecap="round"/>
<line x1="1391.6" y1="906.0" x2="1403.6" y2="924.0" stroke="black" stroke-width="3.0" stroke-linecap="round"/>
</svg>
