<svg xmlns="http://www.w3.org/2000/svg" viewBox="0 0 1840 1840" width="1840" height="1840">
<rect x="0" y="0" width="1840" height="1840" fill="white"/>
<defs>
    <pattern id="hatchSparse" width="20" height="20" patternTransform="rotate(45)" patternUnits="userSpaceOnUse">
      <line x1="0" y1="0" x2="0" y2="20" stroke="black" stroke-width="3"/>
    </pattern>
    <pattern id="hatchCross" width="16" height="16" patternTransform="rotate(45)" patternUnits="userSpaceOnUse">
      <line x1="0" y1="0" x2="0" y2="16" stroke="black" stroke-width="3"/>
      <line x1="0" y1="0" x2="16" y2="0" stroke="black" stroke-width="3"/>
    </pattern>
  </defs>
<rect x="40.0" y="40.0" width="860.0" height="860.0" fill="none" stroke="black" stroke-width="9"/>
<rect x="60.0" y="60.0" width="820.0" height="189.2" fill="url(#hatchSparse)" stroke="black" stroke-width="0"/>
<line x1="60.0" y1="573.2" x2="880.0" y2="573.2" stroke="black" stroke-width="4" stroke-linecap="round"/>
<line x1="810.0" y1="212.0" x2="810.0" y2="573.2" stroke="black" stroke-width="3" stroke-linecap="round"/>
<line x1="810.0" y1="212.0" x2="880.0" y2="212.0" stroke="black" stroke-width="3" stroke-linecap="round"/>
<line x1="810.0" y1="257.1" x2="880.0" y2="257.1" stroke="black" stroke-width="3" stroke-linecap="round"/>
<line x1="810.0" y1="302.3" x2="880.0" y2="302.3" stroke="black" stroke-width="3" stroke-linecap="round"/>
<line x1="810.0" y1="347.4" x2="880.0" y2="347.4" stroke="black" stroke-width="3" stroke-linecap="round"/>
<line x1="810.0" y1="392.6" x2="880.0" y2="392.6" stroke="black" stroke-width="3" stroke-linecap="round"/>
<line x1="810.0" y1="437.8" x2="880.0" y2="437.8" stroke="black" stroke-width="3" stroke-linecap="round"/>
<line x1="810.0" y1="482.9" x2="880.0" y2="482.9" stroke="black" stroke-width="3" stroke-linecap="round"/>
<line x1="810.0" y1="528.0" x2="880.0" y2="528.0" stroke="black" stroke-width="3" stroke-linecap="round"/>
<circle cx="315.2" cy="329.0" r="30.0" fill="none" stroke="black" stroke-width="8"/>
<polyline points="315.2,384.0 309.2,534.0" fill="none" stroke="black" stroke-width="10" stroke-linecap="round" stroke-linejoin="round"/>
<polyline points="315.2,392.0 245.2,344.0 205.2,294.0" fill="none" stroke="black" stroke-width="9" stroke-linecap="round" stroke-linejoin="round"/>
<polyline points="315.2,392.0 370.2,454.0" fill="none" stroke="black" stroke-width="9" stroke-linecap="round" stroke-linejoin="round"/>
<polyline points="309.2,534.0 270.2,634.0 260.2,704.0" fill="none" stroke="black" stroke-width="10" stroke-linecap="round" stroke-linejoin="round"/>
<polyline points="309.2,534.0 350.2,634.0 360.2,704.0" fill="none" stroke="black" stroke-width="10" stroke-linecap="round" stroke-linejoin="round"/>
<rect x="167.4" y="840.0" width="605.2" height="44.0" fill="white"/>
<text x="470.0" y="874.0" font-family="sans-serif" font-weight="700" font-size="28" text-anchor="middle">"Two more touches. That's all I need."</text>
<rect x="940.0" y="40.0" width="860.0" height="860.0" fill="none" stroke="black" stroke-width="9"/>
<text x="964.0" y="78.0" font-family="sans-serif" font-size="20">low angle · indoor</text>
<rect x="970.0" y="126.0" width="395.6" height="395.6" fill="url(#hatchCross)" stroke="black" stroke-width="0"/>
<line x1="1026.0" y1="177.6" x2="956.0" y2="513.0" stroke="black" stroke-width="4" stroke-linecap="round"/>
<line x1="1050.0" y1="177.6" x2="980.0" y2="513.0" stroke="black" stroke-width="4" stroke-linecap="round"/>
<line x1="1074.0" y1="177.6" x2="1004.0" y2="513.0" stroke="black" stroke-width="4" stroke-linecap="round"/>
<line x1="1098.0" y1="177.6" x2="1028.0" y2="513.0" stroke="black" stroke-width="4" stroke-linecap="round"/>
<line x1="1122.0" y1="177.6" x2="1052.0" y2="513.0" stroke="black" stroke-width="4" stroke-linecap="round"/>
<line x1="1146.0" y1="177.6" x2="1076.0" y2="513.0" stroke="black" stroke-width="4" stroke-linecap="round"/>
<circle cx="1543.2" cy="443.2" r="34.0" fill="none" stroke="black" stroke-width="10"/>
<polyline points="1473.2,573.2 1538.2,473.2" fill="none" stroke="black" stroke-width="12" stroke-linecap="round" stroke-linejoin="round"/>
<polyline points="1513.2,503.2 1483.2,563.2 1443.2,613.2" fill="none" stroke="black" stroke-width="10" stroke-linecap="round" stroke-linejoin="round"/>
<polyline points="1513.2,503.2 1573.2,423.2 1623.2,363.2" fill="none" stroke="black" stroke-width="10" stroke-linecap="round" stroke-linejoin="round"/>
<polyline points="1473.2,573.2 1413.2,633.2 1363.2,703.2" fill="none" stroke="black" stroke-width="12" stroke-linecap="round" stroke-linejoin="round"/>
<polyline points="1473.2,573.2 1543.2,613.2 1603.2,583.2" fill="none" stroke="black" stroke-width="12" stroke-linecap="round" stroke-linejoin="round"/>
<rect x="1274.2" y="842.0" width="191.6" height="42.0" fill="white"/>
<text x="1370.0" y="874.0" font-family="sans-serif" font-weight="700" font-size="26" text-anchor="middle">the approach</text>
<rect x="40.0" y="940.0" width="860.0" height="860.0" fill="none" stroke="black" stroke-width="9"/>
<clipPath id="ballClip"><circle cx="470.0" cy="1249.6" r="232.2"/></clipPath>
<circle cx="470.0" cy="1249.6" r="232.2" fill="none" stroke="black" stroke-width="9"/>
<line x1="237.8" y1="1249.6" x2="702.2" y2="1249.6" stroke="black" stroke-width="4" stroke-linecap="round"/>
<path d="M 470.0,1017.4 C 342.3,1179.9 342.3,1319.3 470.0,1481.8" fill="none" stroke="black" stroke-width="4"/>
<g clip-path="url(#ballClip)"><rect x="237.8" y="1249.6" width="464.4" height="232.2" fill="url(#hatchCross)"/></g>
<polyline points="229.2,1760.0 388.7,1516.6" fill="none" stroke="black" stroke-width="16" stroke-linecap="round" stroke-linejoin="round"/>
<polyline points="710.8,1760.0 551.3,1516.6" fill="none" stroke="black" stroke-width="16" stroke-linecap="round" stroke-linejoin="round"/>
<rect x="416.0" y="1736.0" width="108.0" height="48.0" fill="white"/>
<text x="470.0" y="1774.0" font-family="sans-serif" font-weight="700" font-size="32" text-anchor="middle">"Up—"</text>
<rect x="940.0" y="940.0" width="860.0" height="860.0" fill="none" stroke="black" stroke-width="9"/>
<line x1="965.0" y1="1524.8" x2="1775.0" y2="1524.8" stroke="black" stroke-width="4" stroke-linecap="round"/>
<circle cx="1730.0" cy="1512.8" r="14.0" fill="black" stroke="black" stroke-width="2"/>
<rect x="1670.0" y="1520.8" width="110.0" height="22.0" fill="url(#hatchSparse)" stroke="black" stroke-width="0"/>
<line x1="980.0" y1="1679.6" x2="1473.2" y2="1679.6" stroke="black" stroke-width="3" stroke-linecap="round"/>
<circle cx="1043.2" cy="1591.6" r="15.0" fill="none" stroke="black" stroke-width="6"/>
<polyline points="1043.2,1605.6 1043.2,1649.6" fill="none" stroke="black" stroke-width="7" stroke-linecap="round" stroke-linejoin="round"/>
<polyline points="1043.2,1616.6 1025.2,1646.6" fill="none" stroke="black" stroke-width="6" stroke-linecap="round" stroke-linejoin="round"/>
<polyline points="1043.2,1616.6 1059.2,1601.6" fill="none" stroke="black" stroke-width="6" stroke-linecap="round" stroke-linejoin="round"/>
<polyline points="1043.2,1649.6 1033.2,1679.6" fill="none" stroke="black" stroke-width="7" stroke-linecap="round" stroke-linejoin="round"/>
<polyline points="1043.2,1649.6 1053.2,1679.6" fill="none" stroke="black" stroke-width="7" stroke-linecap="round" stroke-linejoin="round"/>
<circle cx="1146.4" cy="1603.6" r="15.0" fill="none" stroke="black" stroke-width="6"/>
<polyline points="1146.4,1617.6 1146.4,1661.6" fill="none" stroke="black" stroke-width="7" stroke-linecap="round" stroke-linejoin="round"/>
<polyline points="1146.4,1628.6 1128.4,1658.6" fill="none" stroke="black" stroke-width="6" stroke-linecap="round" stroke-linejoin="round"/>
<polyline points="1146.4,1628.6 1162.4,1613.6" fill="none" stroke="black" stroke-width="6" stroke-linecap="round" stroke-linejoin="round"/>
<polyline points="1146.4,1661.6 1136.4,1679.6" fill="none" stroke="black" stroke-width="7" stroke-linecap="round" stroke-linejoin="round"/>
<polyline points="1146.4,1661.6 1156.4,1679.6" fill="none" stroke="black" stroke-width="7" stroke-linecap="round" stroke-linejoin="round"/>
<circle cx="1249.6" cy="1591.6" r="15.0" fill="none" stroke="black" stroke-width="6"/>
<polyline points="1249.6,1605.6 1249.6,1649.6" fill="none" stroke="black" stroke-width="7" stroke-linecap="round" stroke-linejoin="round"/>
<polyline points="1249.6,1616.6 1231.6,1646.6" fill="none" stroke="black" stroke-width="6" stroke-linecap="round" stroke-linejoin="round"/>
<polyline points="1249.6,1616.6 1265.6,1601.6" fill="none" stroke="black" stroke-width="6" stroke-linecap="round" stroke-linejoin="round"/>
<polyline points="1249.6,1649.6 1239.6,1679.6" fill="none" stroke="black" stroke-width="7" stroke-linecap="round" stroke-linejoin="round"/>
<polyline points="1249.6,1649.6 1259.6,1679.6" fill="none" stroke="black" stroke-width="7" stroke-linecap="round" stroke-linejoin="round"/>
<circle cx="1352.8" cy="1603.6" r="15.0" fill="none" stroke="black" stroke-width="6"/>
<polyline points="1352.8,1617.6 1352.8,1661.6" fill="none" stroke="black" stroke-width="7" stroke-linecap="round" stroke-linejoin="round"/>
<polyline points="1352.8,1628.6 1334.8,1658.6" fill="none" stroke="black" stroke-width="6" stroke-linecap="round" stroke-linejoin="round"/>
<polyline points="1352.8,1628.6 1368.8,1613.6" fill="none" stroke="black" stroke-width="6" stroke-linecap="round" stroke-linejoin="round"/>
<polyline points="1352.8,1661.6 1342.8,1679.6" fill="none" stroke="black" stroke-width="7" stroke-linecap="round" stroke-linejoin="round"/>
<polyline points="1352.8,1661.6 1362.8,1679.6" fill="none" stroke="black" stroke-width="7" stroke-linecap="round" stroke-linejoin="round"/>
<rect x="1236.2" y="1738.0" width="267.5" height="46.0" fill="white"/>
<text x="1370.0" y="1774.0" font-family="sans-serif" font-weight="700" font-size="30" text-anchor="middle">"—there it is."</text>
</svg>
